<svg xmlns="http://www.w3.org/2000/svg" viewBox="0 0 400 300">
  <defs>
    <linearGradient id="monGrad" x1="0%" y1="0%" x2="0%" y2="100%">
      <stop offset="0%" stop-color="#d8dde8"/>
      <stop offset="100%" stop-color="#b0b8c8"/>
    </linearGradient>
    <linearGradient id="scr" x1="0%" y1="0%" x2="100%" y2="100%">
      <stop offset="0%" stop-color="#0d1525"/>
      <stop offset="100%" stop-color="#061020"/>
    </linearGradient>
    <linearGradient id="towerGrad" x1="0%" y1="0%" x2="100%" y2="0%">
      <stop offset="0%" stop-color="#c8cfd8"/>
      <stop offset="100%" stop-color="#9aa0b0"/>
    </linearGradient>
    <filter id="sh2"><feDropShadow dx="0" dy="6" stdDeviation="10" flood-color="#000" flood-opacity="0.2"/></filter>
  </defs>

  <ellipse cx="200" cy="290" rx="160" ry="8" fill="#000" opacity="0.1"/>

  <!-- Monitor -->
  <rect x="70" y="20" width="220" height="160" rx="8" fill="url(#monGrad)" filter="url(#sh2)"/>
  <rect x="78" y="28" width="204" height="144" rx="5" fill="#111"/>
  <rect x="82" y="32" width="196" height="136" rx="4" fill="url(#scr)"/>

  <!-- Screen UI -->
  <rect x="82" y="32" width="196" height="16" rx="4 4 0 0" fill="#0a0e1e"/>
  <circle cx="93" cy="40" r="3.5" fill="#ff5f57"/>
  <circle cx="104" cy="40" r="3.5" fill="#ffbd2e"/>
  <circle cx="115" cy="40" r="3.5" fill="#28c840"/>
  <rect x="135" y="37" width="70" height="7" rx="3.5" fill="#1a2a40"/>
  <rect x="248" y="37" width="22" height="7" rx="3.5" fill="#1d7ef5" opacity="0.7"/>

  <!-- Dashboard widgets -->
  <rect x="88" y="54" width="85" height="55" rx="4" fill="#111d30"/>
  <rect x="93" y="59" width="40" height="5" rx="2" fill="#fff" opacity="0.35"/>
  <rect x="93" y="68" width="75" height="3" rx="1.5" fill="#1d7ef5" opacity="0.7"/>
  <rect x="93" y="74" width="55" height="3" rx="1.5" fill="#1d7ef5" opacity="0.4"/>
  <rect x="93" y="80" width="65" height="3" rx="1.5" fill="#7c3aed" opacity="0.5"/>
  <rect x="93" y="86" width="45" height="3" rx="1.5" fill="#F5C518" opacity="0.5"/>
  <rect x="93" y="92" width="70" height="3" rx="1.5" fill="#22c55e" opacity="0.4"/>
  <rect x="93" y="98" width="50" height="3" rx="1.5" fill="#1d7ef5" opacity="0.35"/>

  <!-- Chart widget -->
  <rect x="180" y="54" width="90" height="55" rx="4" fill="#111d30"/>
  <rect x="185" y="59" width="35" height="5" rx="2" fill="#fff" opacity="0.35"/>
  <!-- Bar chart -->
  <rect x="188" y="96" width="9" height="12" rx="2" fill="#1d7ef5" opacity="0.8"/>
  <rect x="200" y="88" width="9" height="20" rx="2" fill="#7c3aed" opacity="0.8"/>
  <rect x="212" y="92" width="9" height="16" rx="2" fill="#F5C518" opacity="0.8"/>
  <rect x="224" y="80" width="9" height="28" rx="2" fill="#1d7ef5" opacity="0.8"/>
  <rect x="236" y="86" width="9" height="22" rx="2" fill="#22c55e" opacity="0.8"/>
  <rect x="248" y="90" width="9" height="18" rx="2" fill="#7c3aed" opacity="0.6"/>

  <!-- Bottom row widgets -->
  <rect x="88" y="116" width="55" height="40" rx="4" fill="#111d30"/>
  <rect x="150" y="116" width="55" height="40" rx="4" fill="#111d30"/>
  <rect x="212" y="116" width="58" height="40" rx="4" fill="#111d30"/>
  <circle cx="115" cy="133" r="10" fill="none" stroke="#1d7ef5" stroke-width="2.5" opacity="0.7"/>
  <path d="M115 123 A10 10 0 0 1 125 133" fill="none" stroke="#F5C518" stroke-width="2.5" stroke-linecap="round"/>
  <rect x="155" y="122" width="45" height="3" rx="1.5" fill="#22c55e" opacity="0.7"/>
  <rect x="155" y="128" width="35" height="3" rx="1.5" fill="#22c55e" opacity="0.5"/>
  <rect x="155" y="134" width="40" height="3" rx="1.5" fill="#22c55e" opacity="0.4"/>
  <rect x="155" y="140" width="30" height="3" rx="1.5" fill="#22c55e" opacity="0.3"/>
  <rect x="217" y="122" width="48" height="26" rx="3" fill="#1a2840"/>
  <rect x="220" y="125" width="42" height="3" rx="1.5" fill="#1d7ef5" opacity="0.6"/>
  <rect x="220" y="131" width="32" height="3" rx="1.5" fill="#7c3aed" opacity="0.5"/>
  <rect x="220" y="137" width="38" height="3" rx="1.5" fill="#F5C518" opacity="0.4"/>
  <rect x="220" y="143" width="28" height="3" rx="1.5" fill="#22c55e" opacity="0.4"/>

  <!-- Monitor stand -->
  <rect x="172" y="180" width="16" height="40" rx="2" fill="#b0b8c8"/>
  <rect x="145" y="218" width="70" height="10" rx="5" fill="#a8b0c0"/>

  <!-- Tower PC -->
  <rect x="310" y="80" width="62" height="140" rx="6" fill="url(#towerGrad)" filter="url(#sh2)"/>
  <rect x="316" y="90" width="50" height="30" rx="3" fill="#0d1525"/>
  <!-- Power button -->
  <circle cx="341" cy="75" r="6" fill="#222" stroke="#888" stroke-width="1"/>
  <circle cx="341" cy="75" r="3" fill="#1d7ef5" opacity="0.9"/>
  <!-- Drive slots -->
  <rect x="319" y="130" width="44" height="7" rx="2" fill="#aab0be"/>
  <rect x="319" y="141" width="44" height="7" rx="2" fill="#aab0be"/>
  <rect x="319" y="152" width="44" height="4" rx="2" fill="#aab0be" opacity="0.6"/>
  <!-- Vents -->
  <rect x="319" y="165" width="44" height="2" rx="1" fill="#9aa0b0" opacity="0.6"/>
  <rect x="319" y="170" width="44" height="2" rx="1" fill="#9aa0b0" opacity="0.5"/>
  <rect x="319" y="175" width="44" height="2" rx="1" fill="#9aa0b0" opacity="0.4"/>
  <rect x="319" y="180" width="44" height="2" rx="1" fill="#9aa0b0" opacity="0.3"/>
  <!-- USB ports -->
  <rect x="325" y="195" width="10" height="6" rx="1" fill="#7a8090"/>
  <rect x="338" y="195" width="10" height="6" rx="1" fill="#7a8090"/>
  <!-- Logo area -->
  <rect x="325" y="207" width="30" height="5" rx="2" fill="#aab0be" opacity="0.5"/>

  <!-- Mouse -->
  <ellipse cx="250" cy="255" rx="20" ry="27" fill="#c8cfd8" filter="url(#sh2)"/>
  <ellipse cx="250" cy="248" rx="14" ry="18" fill="#b8c0d0"/>
  <line x1="250" y1="230" x2="250" y2="256" stroke="#a0a8b8" stroke-width="1.5" stroke-dasharray="0"/>
  <ellipse cx="250" cy="237" rx="5" ry="4" fill="#d8dde8"/>
  <rect x="248" y="238" width="4" height="6" rx="1" fill="#1d7ef5" opacity="0.7"/>

  <!-- Keyboard -->
  <rect x="80" y="240" width="200" height="48" rx="6" fill="#c8cfd8" filter="url(#sh2)"/>
  <rect x="85" y="246" width="190" height="36" rx="4" fill="#b8c0d0"/>
  <!-- Key rows -->
  <rect x="90" y="250" width="180" height="7" rx="2" fill="#a8b0c0" opacity="0.6"/>
  <rect x="90" y="260" width="180" height="7" rx="2" fill="#a8b0c0" opacity="0.55"/>
  <rect x="95" y="270" width="170" height="7" rx="2" fill="#a8b0c0" opacity="0.5"/>
  <!-- Individual keys -->
  <rect x="92" y="250" width="10" height="7" rx="1.5" fill="#bec6d4" opacity="0.8"/>
  <rect x="105" y="250" width="10" height="7" rx="1.5" fill="#bec6d4" opacity="0.8"/>
  <rect x="118" y="250" width="10" height="7" rx="1.5" fill="#bec6d4" opacity="0.8"/>
  <rect x="131" y="250" width="10" height="7" rx="1.5" fill="#bec6d4" opacity="0.8"/>
  <rect x="144" y="250" width="10" height="7" rx="1.5" fill="#bec6d4" opacity="0.8"/>
  <rect x="157" y="250" width="10" height="7" rx="1.5" fill="#bec6d4" opacity="0.8"/>
  <rect x="170" y="250" width="10" height="7" rx="1.5" fill="#bec6d4" opacity="0.8"/>
  <rect x="183" y="250" width="10" height="7" rx="1.5" fill="#bec6d4" opacity="0.8"/>
  <rect x="196" y="250" width="10" height="7" rx="1.5" fill="#bec6d4" opacity="0.8"/>
  <rect x="209" y="250" width="10" height="7" rx="1.5" fill="#bec6d4" opacity="0.8"/>
  <rect x="222" y="250" width="10" height="7" rx="1.5" fill="#bec6d4" opacity="0.8"/>
  <rect x="235" y="250" width="10" height="7" rx="1.5" fill="#bec6d4" opacity="0.8"/>
  <rect x="248" y="250" width="22" height="7" rx="1.5" fill="#bec6d4" opacity="0.8"/>
  <!-- Spacebar -->
  <rect x="130" y="270" width="90" height="7" rx="2" fill="#bec6d4" opacity="0.8"/>
</svg>
